<svg width="72" height="72" viewBox="0 0 72 72" fill="none" xmlns="http://www.w3.org/2000/svg">
  <rect x="4" y="4" width="64" height="64" rx="16" fill="#2E001E"/>
  <rect x="6.5" y="6.5" width="59" height="59" rx="13.5" stroke="#FF61F6" stroke-width="3"/>
  <path d="M25.27 45L30.2 38.61L25.52 32.24H30.58L32.19 34.74C32.47 35.1667 32.7433 35.6133 33.01 36.08C33.29 36.5333 33.59 37.0133 33.91 37.52H34.02C34.26 37.0133 34.5 36.5333 34.74 36.08C34.98 35.6133 35.2267 35.1667 35.48 34.74L36.96 32.24H41.8L37.12 38.82L42.09 45H37.03L35.15 42.22C34.8433 41.78 34.55 41.3267 34.27 40.86C34.0033 40.3933 33.7033 39.92 33.37 39.44H33.26C32.98 39.92 32.7133 40.3933 32.46 40.86C32.2067 41.3133 31.9333 41.7667 31.64 42.22L29.9 45H25.27Z" fill="#FF61F6"/>
  <path d="M47.6642 45.4C46.5842 45.4 45.5975 45.12 44.7042 44.56C43.8108 44 43.0908 43.1733 42.5442 42.08C42.0108 40.9733 41.7442 39.6267 41.7442 38.04C41.7442 36.4533 42.0508 35.1 42.6642 33.98C43.2775 32.86 44.0642 32 45.0242 31.4C45.9975 30.8 47.0242 30.5 48.1042 30.5C48.8908 30.5 49.5708 30.6333 50.1442 30.9C50.7175 31.1533 51.2775 31.5533 51.8242 32.1L51.6242 29.19V22.74H56.2842V45H52.4842L52.1442 43.41H52.0642C51.4775 43.97 50.8175 44.43 50.0842 44.79C49.3642 45.15 48.5575 45.3533 47.6642 45.4ZM48.9342 41.57C49.4742 41.57 49.9608 41.4433 50.3942 41.19C50.8408 40.9367 51.2508 40.5233 51.6242 39.95V35.18C51.2242 34.8333 50.8108 34.5933 50.3842 34.46C49.9708 34.3267 49.5642 34.26 49.1642 34.26C48.6242 34.26 48.1242 34.42 47.6642 34.74C47.2042 35.0467 46.8308 35.5 46.5442 36.1C46.2708 36.7 46.1342 37.44 46.1342 38.32C46.1342 39.6667 46.3908 40.6667 46.9042 41.32C47.4175 41.96 48.0942 42.36 48.9342 41.57Z" fill="#FF61F6"/>
</svg>
