<svg width="72" height="72" viewBox="0 0 72 72" fill="none" xmlns="http://www.w3.org/2000/svg">
  <rect x="4" y="4" width="64" height="64" rx="16" fill="white"/>
  <path d="M25.0798 30.1161L16.4678 38.7081C15.5078 39.6681 15.5078 41.2241 16.4678 42.1841C17.4278 43.1441 18.9838 43.1441 19.9438 42.1841L28.5558 33.5921L25.0798 30.1161Z" fill="#F5792A"/>
  <path d="M29.0234 23.9365L24.1634 19.0765C23.2034 18.1165 21.6474 18.1165 20.6874 19.0765C19.7274 20.0365 19.7274 21.5925 20.6874 22.5525L25.5474 27.4125L29.0234 23.9365Z" fill="#F5792A"/>
  <path d="M50.4938 28.4718C47.1138 25.0918 42.0138 23.9918 37.5738 25.1918L31.3938 19.0118C30.4338 18.0518 28.8778 18.0518 27.9178 19.0118C26.9578 19.9718 26.9578 21.5278 27.9178 22.4878L34.0778 28.6478C31.0378 33.8678 31.7578 40.6878 36.2578 45.2078C41.6178 50.5678 50.3138 50.5678 55.6738 45.2078C61.0338 39.8478 61.0338 31.1518 55.6738 25.7918C54.1138 24.2318 52.3638 23.1518 50.4938 22.4718V28.4718Z" fill="#F5792A"/>
  <circle cx="45.9" cy="35.6" r="7.7" fill="#1E88E5"/>
</svg>
