<svg width="72" height="72" viewBox="0 0 72 72" fill="none" xmlns="http://www.w3.org/2000/svg">
  <rect x="4" y="4" width="64" height="64" rx="16" fill="white"/>
  <rect x="6.5" y="6.5" width="59" height="59" rx="13.5" stroke="#D7D8E1" stroke-width="3"/>
  <path d="M30 58C33.3137 58 36 55.3137 36 52V46H30C26.6863 46 24 48.6863 24 52C24 55.3137 26.6863 58 30 58Z" fill="#0ACF83"/>
  <path d="M24 40C24 36.6863 26.6863 34 30 34H36V46H30C26.6863 46 24 43.3137 24 40Z" fill="#A259FF"/>
  <path d="M24 28C24 24.6863 26.6863 22 30 22H36V34H30C26.6863 34 24 31.3137 24 28Z" fill="#F24E1E"/>
  <path d="M36 22H42C45.3137 22 48 24.6863 48 28C48 31.3137 45.3137 34 42 34H36V22Z" fill="#FF7262"/>
  <path d="M48 40C48 43.3137 45.3137 46 42 46C38.6863 46 36 43.3137 36 40C36 36.6863 38.6863 34 42 34C45.3137 34 48 36.6863 48 40Z" fill="#1ABCFE"/>
</svg>
