<svg width="72" height="72" viewBox="0 0 72 72" fill="none" xmlns="http://www.w3.org/2000/svg">
  <rect x="4" y="4" width="64" height="64" rx="16" fill="#2D0400"/>
  <rect x="6.5" y="6.5" width="59" height="59" rx="13.5" stroke="#FF9A00" stroke-width="3"/>
  <path d="M28.24 45L34.89 27.11H38.87L45.58 45H40.26L38.97 40.88H32.56L31.27 45H28.24ZM33.48 37.26H38.06L37.63 35.89C37.35 35.01 37.08 34.06 36.82 33.04C36.58 32 36.33 31.02 36.07 30.1H35.96C35.73 31.04 35.47 32.03 35.18 33.07C34.91 34.09 34.64 35.03 34.37 35.89L33.48 37.26Z" fill="#FF9A00"/>
  <path d="M48.1504 30.92C47.3637 30.92 46.7304 30.6933 46.2504 30.24C45.7704 29.7867 45.5304 29.2067 45.5304 28.5C45.5304 27.78 45.7704 27.2 46.2504 26.76C46.7304 26.3067 47.3637 26.08 48.1504 26.08C48.9237 26.08 49.5504 26.3067 50.0304 26.76C50.5237 27.2 50.7704 27.78 50.7704 28.5C50.7704 29.2067 50.5237 29.7867 50.0304 30.24C49.5504 30.6933 48.9237 30.92 48.1504 30.92ZM45.8304 45V32.34H50.4704V45H45.8304Z" fill="#FF9A00"/>
</svg>
