<svg width="72" height="72" viewBox="0 0 72 72" fill="none" xmlns="http://www.w3.org/2000/svg">
  <rect x="4" y="4" width="64" height="64" rx="16" fill="#49021F"/>
  <rect x="6.5" y="6.5" width="59" height="59" rx="13.5" stroke="#FF3366" stroke-width="3"/>
  <path d="M24.72 27.08C24.72 26.2933 24.96 25.6667 25.44 25.2C25.92 24.72 26.5533 24.48 27.34 24.48C28.1267 24.48 28.76 24.72 29.24 25.2C29.72 25.6667 29.96 26.2933 29.96 27.08C29.96 27.8533 29.72 28.4733 29.24 28.94C28.76 29.4067 28.1267 29.64 27.34 29.64C26.5533 29.64 25.92 29.4067 25.44 28.94C24.96 28.4733 24.72 27.8533 24.72 27.08ZM25.03 32.24H29.65V45H25.03V32.24Z" fill="#FF3366"/>
  <path d="M39.0689 45.4C37.9889 45.4 37.0022 45.12 36.1089 44.56C35.2155 44 34.4955 43.1733 33.9489 42.08C33.4155 40.9733 33.1489 39.6267 33.1489 38.04C33.1489 36.4533 33.4555 35.1 34.0689 33.98C34.6822 32.86 35.4689 32 36.4289 31.4C37.4022 30.8 38.4289 30.5 39.5089 30.5C40.2955 30.5 40.9755 30.6333 41.5489 30.9C42.1222 31.1533 42.6822 31.5533 43.2289 32.1L43.0289 29.19V22.74H47.6889V45H43.8889L43.5489 43.41H43.4689C42.8822 43.97 42.2222 44.43 41.4889 44.79C40.7689 45.1667 39.9622 45.37 39.0689 45.4ZM40.3389 41.57C40.8789 41.57 41.3655 41.4433 41.7989 41.19C42.2455 40.9367 42.6555 40.5233 43.0289 39.95V35.18C42.6289 34.8333 42.2155 34.5933 41.7889 34.46C41.3755 34.3267 40.9689 34.26 40.5689 34.26C40.0289 34.26 39.5289 34.42 39.0689 34.74C38.6089 35.0467 38.2355 35.5 37.9489 36.1C37.6755 36.7 37.5389 37.44 37.5389 38.32C37.5389 39.6667 37.7955 40.6667 38.3089 41.32C38.8222 41.96 39.4989 42.36 40.3389 41.57Z" fill="#FF3366"/>
</svg>
