<svg width="72" height="72" viewBox="0 0 72 72" fill="none" xmlns="http://www.w3.org/2000/svg">
  <rect x="4" y="4" width="64" height="64" rx="16" fill="#001E36"/>
  <rect x="6.5" y="6.5" width="59" height="59" rx="13.5" stroke="#31A8FF" stroke-width="3"/>
  <path d="M23.5 45V26.7H31.52C33.3933 26.7 34.9267 27.0267 36.12 27.68C37.3133 28.3333 37.91 29.5267 37.91 31.26C37.91 33.1333 37.3133 34.4733 36.12 35.28C34.9267 36.0867 33.34 36.49 31.36 36.49H28.57V45H23.5ZM28.57 32.52H30.78C31.78 32.52 32.5067 32.3533 32.96 32.02C33.4267 31.6867 33.66 31.1667 33.66 30.46C33.66 29.7533 33.42 29.2667 32.94 29C32.4733 28.7333 31.7267 28.6 30.7 28.6H28.57V32.52Z" fill="#31A8FF"/>
  <path d="M45.9703 45.4C44.7036 45.4 43.477 45.1867 42.2903 44.76C41.1036 44.32 40.117 43.7067 39.3303 42.92L41.8403 39.97C42.467 40.5433 43.1203 40.99 43.8003 41.31C44.4936 41.63 45.1736 41.79 45.8403 41.79C46.4803 41.79 46.9403 41.6767 47.2203 41.45C47.5136 41.2233 47.6603 40.9233 47.6603 40.55C47.6603 40.1233 47.4336 39.8033 46.9803 39.59C46.5403 39.3633 45.947 39.13 45.2003 38.89L42.8903 38.13C42.3036 37.9433 41.737 37.6833 41.1903 37.35C40.657 37.0033 40.217 36.57 39.8703 36.05C39.537 35.53 39.3703 34.9033 39.3703 34.17C39.3703 33.3433 39.597 32.59 40.0503 31.91C40.5036 31.2167 41.1503 30.6633 41.9903 30.25C42.8436 29.8233 43.857 29.61 45.0303 29.61C46.017 29.61 47.0303 29.8033 48.0703 30.19C49.1236 30.5767 50.0436 31.15 50.8303 31.91L48.5903 34.71C47.9903 34.2567 47.417 33.91 46.8703 33.67C46.337 33.4167 45.7236 33.29 45.0303 33.29C44.5103 33.29 44.1036 33.39 43.8103 33.59C43.5303 33.79 43.3903 34.07 43.3903 34.43C43.3903 34.8433 43.6236 35.15 44.0903 35.35C44.5703 35.55 45.1903 35.7767 45.9503 36.03L48.2203 36.75C49.2336 37.07 50.0436 37.59 50.6503 38.31C51.257 39.0167 51.5603 39.9767 51.5603 41.19C51.5603 42.0033 51.347 42.7633 50.9203 43.47C50.4936 44.1767 49.847 44.75 48.9803 45.19C48.127 45.6233 47.1236 45.6933 45.9703 45.4Z" fill="#31A8FF"/>
</svg>
