<svg width="72" height="72" viewBox="0 0 72 72" fill="none" xmlns="http://www.w3.org/2000/svg">
  <rect x="4" y="4" width="64" height="64" rx="16" fill="#1F003C"/>
  <rect x="6.5" y="6.5" width="59" height="59" rx="13.5" stroke="#EA77FF" stroke-width="3"/>
  <path d="M22.8 45V26.8H30.74C32.5867 26.8 34.1 27.12 35.28 27.76C36.4733 28.4 37.07 29.5733 37.07 31.28C37.07 33.12 36.4733 34.4333 35.28 35.22C34.1 36.0067 32.5333 36.4 30.58 36.4H27.84V45H22.8ZM27.84 32.58H30.02C31.0067 32.58 31.7267 32.4167 32.18 32.09C32.6467 31.7633 32.88 31.2533 32.88 30.56C32.88 29.8667 32.64 29.3933 32.16 29.14C31.6933 28.8733 30.9533 28.74 29.94 28.74H27.84V32.58Z" fill="#EA77FF"/>
  <path d="M40.1309 45V32.32H43.9309L44.2709 34.56H44.3509C44.8176 33.7067 45.3909 33.0667 46.0709 32.64C46.7509 32.2 47.4442 31.98 48.1509 31.98C48.7776 31.98 49.2776 32.0667 49.6509 32.24L48.8509 36.27C48.4109 36.15 48.0109 36.09 47.6509 36.09C47.1242 36.09 46.5509 36.2567 45.9309 36.59C45.3242 36.9233 44.8109 37.51 44.3909 38.35V45H40.1309Z" fill="#EA77FF"/>
</svg>
